<svg viewBox="0 0 40 40" version="1.1" id="settingsBtnSvg" sodipodi:docname="gear.svg" width="40" height="40" inkscape:version="1.3.2 (091e20ef0f, 2023-11-25, custom)" xmlns:inkscape="http://www.inkscape.org/namespaces/inkscape" xmlns:sodipodi="http://sodipodi.sourceforge.net/DTD/sodipodi-0.dtd" xmlns="http://www.w3.org/2000/svg" xmlns:svg="http://www.w3.org/2000/svg">
  <g id="settingsBtnSvgProps" class="colorNormBtnProps">
    <path d="m 38.357842,13.164104 c 0.244824,0.66561 0.03825,1.407728 -0.48964,1.88207 l -3.312752,3.014374 c 0.08416,0.635009 0.130062,1.285316 0.130062,1.943278 0,0.65796 -0.04591,1.308269 -0.130062,1.943275 l 3.312752,3.014375 c 0.5279,0.474343 0.734464,1.216462 0.48964,1.882071 -0.336628,0.910432 -0.742116,1.782613 -1.208805,2.624188 l -0.359584,0.619708 c -0.504945,0.841575 -1.0711,1.637247 -1.690805,2.387017 -0.45139,0.550851 -1.201158,0.734467 -1.874421,0.520246 L 28.96279,31.640534 c -1.025192,0.788022 -2.157497,1.44598 -3.366305,1.943278 l -0.956337,4.368547 c -0.153015,0.696213 -0.688563,1.247063 -1.392427,1.361821 -1.055796,0.175967 -2.142195,0.267775 -3.251545,0.267775 -1.109351,0 -2.195752,-0.0918 -3.251547,-0.267775 -0.703864,-0.114758 -1.239413,-0.665608 -1.392428,-1.361821 L 14.395867,33.583811 C 13.187056,33.086515 12.054753,32.428556 11.029559,31.640534 L 6.7757718,33.002358 C 6.1025111,33.216577 5.3527431,33.025314 4.9013515,32.48211 4.2816448,31.732343 3.7154935,30.936671 3.2105481,30.095092 L 2.8509648,29.475385 C 2.3842737,28.63381 1.978786,27.761631 1.6421559,26.851198 1.3973337,26.185587 1.6039014,25.443468 2.1318,24.969127 l 3.3127514,-3.014374 c -0.084159,-0.642658 -0.1300626,-1.292967 -0.1300626,-1.950927 0,-0.657961 0.045904,-1.308269 0.1300626,-1.943278 L 2.1318,15.046174 C 1.6039014,14.571832 1.3973337,13.829713 1.6421559,13.164104 1.978786,12.253669 2.3842737,11.381491 2.8509648,10.539913 L 3.2105481,9.9202095 C 3.7154935,9.078631 4.2816448,8.2829592 4.9013515,7.5331914 5.3527431,6.982342 6.1025111,6.7987235 6.7757718,7.0129446 l 4.2614392,1.3541733 c 1.025192,-0.788022 2.157496,-1.4459817 3.366305,-1.9432774 L 15.359854,2.055294 c 0.153013,-0.6962137 0.688562,-1.2470634 1.392426,-1.3618247 1.055796,-0.18361651 2.142194,-0.2754248 3.251545,-0.2754248 1.109351,0 2.195751,0.0918083 3.251546,0.2677751 0.703864,0.1147594 1.239414,0.6656091 1.392428,1.3618229 l 0.956335,4.3685466 c 1.208811,0.4972957 2.341113,1.155255 3.366308,1.9432772 l 4.261437,-1.3541726 c 0.67326,-0.21422 1.42303,-0.022953 1.87442,0.5202464 0.619707,0.7497698 1.185857,1.5454416 1.690803,2.3870174 l 0.359584,0.6197075 c 0.466694,0.841576 0.872178,1.713756 1.208811,2.624186 z M 20.003825,26.124381 a 6.1205567,6.1205567 0 1 0 0,-12.241113 6.1205567,6.1205567 0 1 0 0,12.241113 z" id="path1" style="stroke-width:0.0765069" />
  </g>
</svg>
